<?xml version="1.0" encoding="utf-8"?>
<!-- Generator: Adobe Illustrator 16.0.0, SVG Export Plug-In . SVG Version: 6.00 Build 0)  -->
<!DOCTYPE svg PUBLIC "-//W3C//DTD SVG 1.1//EN" "http://www.w3.org/Graphics/SVG/1.1/DTD/svg11.dtd">
<svg version="1.1" id="Layer_1" xmlns="http://www.w3.org/2000/svg" xmlns:xlink="http://www.w3.org/1999/xlink" x="0px" y="0px"
	 width="1751.938px" height="251.57px" viewBox="0 0 1751.938 251.57" enable-background="new 0 0 1751.938 251.57"
	 xml:space="preserve">
<polygon fill="#FFFFFF" points="434.836,44.031 455.789,41.148 455.789,191.719 523.977,191.719 523.977,211 434.836,211 "/>
<path fill="#FFFFFF" d="M645.648,206.18c-13.25,5.78-25.781,7.952-39.767,7.952c-38.781,0-61.672-28.672-61.672-63.125
	c0-34.694,22.172-63.602,56.383-63.602c37.345,0,54.445,29.148,54.445,65.289h-89.633c0.727,23.852,14.694,42.891,40.727,42.891
	c12.531,0,23.844-2.897,35.422-7.477L645.648,206.18z M634.07,137.273c-3.609-22.883-16.859-31.32-33.478-31.32
	c-15.672,0-29.641,9.391-33.977,31.32H634.07z"/>
<path fill="#FFFFFF" d="M681.781,92.945l17.344-2.414l2.172,16.625c7.945-13.242,19.984-19.75,35.414-19.75
	c16.617,0,28.914,8.43,34.93,23.125c8.203-15.664,21.688-23.125,38.556-23.125c24.094,0,39.039,17.102,39.039,45.531V211h-20.492
	v-74.453c0-18.789-6.508-30.594-22.406-30.594c-16.383,0-30.594,14.938-30.594,47.703V211h-20.478v-74.453
	c0-18.789-6.516-30.594-22.414-30.594c-15.897,0-30.602,15.18-30.602,46.023V211h-20.469V92.945z"/>
<path fill="#FFFFFF" d="M875.961,150.766c0-34.461,25.055-63.359,61.188-63.359c36.141,0,61.202,28.898,61.202,63.359
	s-24.819,63.366-61.202,63.366C900.773,214.133,875.961,185.227,875.961,150.766 M977.148,150.766c0-25.298-16.625-44.812-40-44.812
	c-23.125,0-39.984,19.517-39.984,44.812s16.617,44.819,39.984,44.819C960.523,195.586,977.148,176.062,977.148,150.766"/>
<path fill="#FFFFFF" d="M1026.297,92.945l17.344-2.414l2.164,18.555c8.438-14.219,21.931-21.68,40.484-21.68
	c24.078,0,39.992,17.586,39.992,46.016V211h-20.492v-73.969c0-18.789-7.703-31.078-23.609-31.078
	c-20.953,0-35.414,17.594-35.414,48.906V211h-20.469V92.945L1026.297,92.945z"/>
<path fill="#FFFFFF" d="M1156.625,183.773c13.977,6.508,27.227,11.086,41.438,11.086c19.281,0,32.773-10.844,32.773-26.508
	c0-38.306-74.938-28.181-74.938-82.156c0-30.117,24.827-45.289,49.875-45.289c14.211,0,26.977,3.367,40.719,9.398l-6.5,17.827
	c-11.57-5.062-21.922-7.961-34.219-7.961c-18.07,0-27.953,10.853-27.953,26.023c0,36.141,74.938,29.147,74.938,82.156
	c0,27.944-23.859,45.78-54.695,45.78c-15.891,0-31.312-4.344-47.461-12.289L1156.625,183.773z"/>
<path fill="#FFFFFF" d="M1285.766,105.719h-16.633V90.531h16.633V61.383l20.47-6.258v35.406h28.672v15.188h-28.672v68.664
	c0,13.97,5.305,21.203,18.547,21.203c5.062,0,10.366-0.969,15.188-2.655l3.853,18.069c-6.734,1.922-13.25,3.133-20.228,3.133
	c-21.938,0-37.828-12.289-37.828-38.069L1285.766,105.719L1285.766,105.719z"/>
<path fill="#FFFFFF" d="M1456.32,193.172c-9.148,13.009-22.884,20.961-40.47,20.961c-34.202,0-56.608-29.397-56.608-63.608
	c0-33.969,23.133-63.117,56.608-63.117c16.875,0,30.125,7.461,39.039,19.031V90.531l20.47,2.414V211H1458.5L1456.32,193.172z
	 M1456.094,150.523c0-27.219-17.844-44.57-38.789-44.57c-20.711,0-36.867,18.07-36.867,44.57c0,25.781,15.431,45.062,36.867,45.062
	C1437.789,195.586,1456.094,178.477,1456.094,150.523"/>
<path fill="#FFFFFF" d="M1509.094,92.945l17.344-2.414l2.173,18.555c8.43-14.219,21.922-21.68,40.477-21.68
	c24.094,0,39.984,17.586,39.984,46.016V211h-20.47v-73.969c0-18.789-7.719-31.078-23.608-31.078
	c-20.978,0-35.431,17.594-35.431,48.906V211h-20.469V92.945z"/>
<path fill="#FFFFFF" d="M1732.906,193.172c-8.914,13.009-22.892,20.961-40.478,20.961c-33.977,0-56.616-29.147-56.616-63.366
	c0-33.961,22.883-63.359,56.616-63.359c16.859,0,30.109,7.461,39.023,19.031V35.602h20.483V211h-16.875L1732.906,193.172z
	 M1732.664,150.523c0-27.703-18.312-44.57-38.789-44.57c-20.961,0-36.867,18.547-36.867,44.812
	c0,26.022,15.664,44.819,36.867,44.819C1714.836,195.586,1732.664,177.992,1732.664,150.523"/>
<path fill="#FFFFFF" d="M302.383,82.336c-3.156-3.155-5.727-9.397-5.727-13.858V8.117c0-4.461-3.664-8.117-8.117-8.117H53.188
	c-4.469,0-8.109,3.656-8.109,8.117v60.359c0,4.461-2.578,10.711-5.711,13.866L2.344,119.648c-3.141,3.172-3.117,8.344,0.023,11.516
	l36.977,37.142c3.148,3.163,5.734,9.405,5.734,13.866v61.281c0,4.469,3.641,8.117,8.109,8.117h235.352
	c4.453,0,8.117-3.648,8.117-8.117v-61.281c0-4.461,2.586-10.694,5.727-13.844l37.211-37.188c3.156-3.148,3.164-8.32,0.017-11.478
	L302.383,82.336z M278.062,156.086c-3.156,3.142-5.75,9.359-5.75,13.828v49.203c0,4.453-3.656,8.109-8.109,8.109H77.539
	c-4.469,0-8.117-3.656-8.117-8.109v-49.203c0-4.469-2.578-10.695-5.719-13.867l-24.734-24.883
	c-3.148-3.164-3.164-8.352-0.016-11.531l24.773-25.102c3.133-3.172,5.695-9.422,5.695-13.883V32.461
	c0-4.469,3.648-8.108,8.117-8.108h186.664c4.453,0,8.109,3.641,8.109,8.108v48.188c0,4.461,2.578,10.694,5.727,13.852l25.219,25.228
	c3.148,3.164,3.133,8.319-0.039,11.453L278.062,156.086z"/>
</svg>
